<svg width="1400" height="1400" viewBox="0 0 1400 1400" fill="none" xmlns="http://www.w3.org/2000/svg">
<rect width="1400" height="1400" fill="white"/>
<path d="M571.492 500H224.665C209.938 500 198 511.933 198 526.654V873.346C198 888.067 209.938 900 224.665 900H571.492C586.219 900 598.157 888.067 598.157 873.346V526.654C598.157 511.933 586.219 500 571.492 500Z" fill="#19181A"/>
<path d="M318.053 677.767H478.103C482.997 677.767 486.981 681.75 486.981 686.642V713.296C486.981 718.188 482.997 722.17 478.103 722.17H318.053C313.159 722.17 309.175 718.188 309.175 713.296V686.642C309.175 681.75 313.159 677.767 318.053 677.767Z" fill="#FBFDFC"/>
<path d="M522.555 566.667H273.57C268.645 566.667 264.692 570.649 264.692 575.541V624.428C264.692 629.351 268.676 633.302 273.57 633.302H300.235C305.16 633.302 309.112 629.32 309.112 624.428V611.101H486.95V624.428C486.95 629.351 490.934 633.302 495.827 633.302H522.492C527.417 633.302 531.37 629.32 531.37 624.428V575.541C531.37 570.618 527.386 566.667 522.492 566.667H522.555Z" fill="#FBFDFC"/>
<path d="M522.554 766.667H495.89C490.965 766.667 487.012 770.649 487.012 775.541V788.868H309.175V775.541C309.175 770.618 305.191 766.667 300.297 766.667H273.633C268.708 766.667 264.755 770.649 264.755 775.541V824.428C264.755 829.351 268.739 833.302 273.633 833.302H522.617C527.542 833.302 531.495 829.32 531.495 824.428V775.541C531.495 770.618 527.511 766.667 522.617 766.667H522.554Z" fill="#FBFDFC"/>
<path d="M721.002 611.383H855.36V646.911H773.735V681.53H848.992V715.365H773.735V751.552H855.36V787.081H721.002V611.383Z" fill="#19181A"/>
<path d="M915.089 709.878L867.312 632.706H926.162L953.235 688.931L979.147 632.706H1037.34L989.31 709.878L1038.12 787.049H979.272L951.008 730.825L923.81 787.049H865.618L915.089 709.878Z" fill="#19181A"/>
<path d="M1075.33 786.328C1067.61 784.729 1061.05 782.095 1055.66 778.394C1050.29 774.694 1046.25 769.74 1043.55 763.5C1040.85 757.259 1039.5 749.545 1039.5 740.326C1039.5 731.64 1040.79 724.334 1043.33 718.407C1045.9 712.48 1049.76 707.683 1054.91 704.045C1060.08 700.408 1066.54 697.742 1074.39 696.049C1082.23 694.356 1091.29 693.509 1101.71 693.509H1149.61V688.962C1149.61 683.161 1148.48 678.583 1146.22 675.227C1143.97 671.872 1140.77 669.489 1136.59 668.078C1132.42 666.635 1127.4 665.945 1121.5 665.945C1117.18 665.945 1113 666.541 1109.02 667.764C1105.04 668.987 1101.55 671.119 1098.6 674.13C1095.66 677.172 1093.49 681.373 1092.11 686.767L1041.32 672.437C1043.33 664.817 1046.84 658.325 1051.93 653.057C1057.01 647.758 1063.12 643.525 1070.34 640.357C1077.55 637.19 1085.52 634.87 1094.24 633.396C1102.96 631.922 1111.97 631.17 1121.25 631.17C1138.88 631.17 1153.66 633.177 1165.64 637.159C1177.63 641.141 1186.66 647.538 1192.78 656.35C1198.89 665.161 1201.97 676.921 1201.97 691.69V787.081H1158.74L1154.19 770.304C1152.62 772.719 1150.21 775.039 1146.98 777.203C1143.71 779.367 1139.79 781.311 1135.18 783.067C1130.57 784.791 1125.46 786.203 1119.81 787.237C1114.16 788.272 1108.23 788.805 1101.96 788.805C1091.89 788.805 1083.01 787.99 1075.26 786.391L1075.33 786.328ZM1128.47 753.998C1133.14 752.869 1137.28 751.333 1140.89 749.389C1144.5 747.444 1147.17 745.281 1148.89 742.96V721.355H1114.13C1110.65 721.355 1107.54 721.606 1104.75 722.076C1101.96 722.546 1099.64 723.362 1097.79 724.49C1095.91 725.619 1094.53 727.313 1093.55 729.57C1092.58 731.828 1092.11 734.776 1092.11 738.413C1092.11 742.051 1092.61 744.842 1093.62 747.068C1094.62 749.294 1096.06 751.019 1097.98 752.273C1099.89 753.528 1102.18 754.437 1104.88 754.939C1107.58 755.472 1110.52 755.723 1113.72 755.723C1118.84 755.723 1123.76 755.158 1128.44 754.029L1128.47 753.998Z" fill="#19181A"/>
</svg>
