<svg width="2384" height="576" viewBox="0 0 2384 576" fill="none" xmlns="http://www.w3.org/2000/svg">
<path d="M951.115 162H969.719V360.933H951.115V162Z" fill="white"/>
<path d="M907.517 164.111H888.78V217.406H863.399V233.236H888.78V360.933H907.517V233.236H937.018V217.406H907.517V164.111Z" fill="white"/>
<path fill-rule="evenodd" clip-rule="evenodd" d="M676.14 360.933V217.406H657.801V243.79C650.536 233.764 642.075 226.244 632.42 221.231C622.852 216.219 612.132 213.712 600.261 213.712C579.707 213.712 562.123 221.056 547.505 235.743C532.888 250.43 525.579 268.107 525.579 288.774C525.579 309.88 532.798 327.821 547.239 342.596C561.768 357.283 579.264 364.627 599.73 364.627C611.246 364.627 621.833 362.253 631.49 357.504C641.235 352.755 650.006 345.675 657.801 336.264V360.933H676.14ZM573.02 239.173C581.789 234.072 591.358 231.521 601.723 231.521C617.846 231.521 631.401 237.106 642.387 248.275C653.46 259.444 658.997 273.339 658.997 289.961C658.997 300.866 656.516 310.673 651.555 319.378C646.682 328.085 639.683 334.99 630.559 340.09C621.434 345.191 611.777 347.742 601.59 347.742C591.49 347.742 582.011 345.191 573.153 340.09C564.382 334.901 557.383 327.69 552.156 318.455C546.929 309.221 544.315 299.548 544.315 289.433C544.315 279.232 546.884 269.558 552.023 260.411C557.25 251.265 564.249 244.185 573.02 239.173Z" fill="white"/>
<path d="M418.062 217.406H395.736L445.304 285.608L390.555 360.933H412.746L456.334 300.647L500.585 360.933H523.176L467.495 285.608L516.93 217.406H494.605L456.334 270.569L418.062 217.406Z" fill="white"/>
<path d="M847.575 247.22L832.824 256.322C820.066 239.524 802.659 231.125 780.6 231.125C762.97 231.125 748.307 236.754 736.614 248.011C725.008 259.268 719.205 272.944 719.205 289.038C719.205 299.503 721.863 309.354 727.179 318.587C732.583 327.821 739.935 334.99 749.239 340.09C758.629 345.191 769.127 347.742 780.733 347.742C801.994 347.742 819.359 339.342 832.824 322.545L847.575 332.175C840.664 342.464 831.362 350.467 819.669 356.184C808.063 361.813 794.818 364.627 779.934 364.627C757.078 364.627 738.12 357.415 723.059 342.993C707.998 328.57 700.469 311.024 700.469 290.357C700.469 276.461 703.967 263.577 710.966 251.705C718.054 239.744 727.755 230.422 740.068 223.738C752.383 217.054 766.159 213.712 781.396 213.712C790.964 213.712 800.178 215.163 809.036 218.066C817.984 220.968 825.559 224.749 831.761 229.41C837.962 234.072 843.234 240.008 847.575 247.22Z" fill="white"/>
<path d="M1001.62 217.406H981.955L1041.36 350.116L1013.45 413.436H1033.12L1119.36 217.406H1099.56L1051.32 327.953L1001.62 217.406Z" fill="white"/>
<path d="M370.316 216.843H204V234.854H204.002L204.002 240.858H219.121V234.854H355.198V240.858H370.317V222.847H370.316V216.843Z" fill="white"/>
<path d="M244.825 279.883V276.071L229.705 276.071L229.705 301.587H244.825V297.894H331.007V301.587H346.126L346.126 276.071L331.007 276.071V279.883H244.825Z" fill="white"/>
<path d="M219.121 342.922V336.918H204.002L204.002 360.934H370.317L370.317 336.918H355.198V342.922H219.121Z" fill="white"/>
<path d="M2179 162H2160.4V360.933H2179V162Z" fill="white"/>
<path d="M1616.04 164.111H1634.77V217.406H1664.27V233.236H1634.77V360.933H1616.04V233.236H1590.65V217.406H1616.04V164.111Z" fill="white"/>
<path fill-rule="evenodd" clip-rule="evenodd" d="M1229.04 216.634V238.914C1240.84 222.675 1262.51 213.556 1282.44 213.556C1304.79 213.556 1322.95 222.226 1335.5 236.27C1348.03 250.292 1354.9 269.576 1354.9 290.722C1354.9 311.872 1348.03 330.555 1335.55 343.969C1323.06 357.398 1305.06 365.425 1283.06 365.425C1262.12 365.425 1241.59 356.974 1229.04 340.672V413.459H1211.52V216.634H1229.04ZM1242.21 248.704C1232.97 260.142 1228.11 275.808 1228.11 292.568C1228.11 308.786 1233.62 322.874 1243.23 332.896C1252.83 342.908 1266.61 348.965 1283.37 348.965C1315.66 348.965 1337.39 321.962 1337.39 291.03C1337.39 259.064 1316.5 230.017 1282.75 230.017C1265 230.017 1251.41 237.307 1242.21 248.704Z" fill="white"/>
<path fill-rule="evenodd" clip-rule="evenodd" d="M1393.21 230.679C1399.4 220.296 1409.3 213.556 1423.05 213.556C1428.93 213.556 1433.82 214.862 1438.95 217.09L1440.8 217.895L1431.44 233.383L1429.94 232.57C1426.71 230.822 1424.22 230.017 1420.88 230.017C1413.46 230.017 1408.15 232.298 1404.29 235.92C1400.38 239.582 1397.8 244.747 1396.12 250.727C1393.1 261.521 1393.15 274.417 1393.2 284.598V284.603L1393.2 284.79C1393.2 285.376 1393.2 285.953 1393.2 286.52L1393.21 287.218C1393.21 287.465 1393.21 287.71 1393.21 287.952V362.348H1375.69V216.634H1393.21V230.679ZM1391.42 284.698C1391.42 285.822 1391.43 286.909 1391.43 287.952C1391.43 286.901 1391.42 285.804 1391.42 284.67V284.698Z" fill="white"/>
<path fill-rule="evenodd" clip-rule="evenodd" d="M1514.91 213.556C1558.03 213.556 1592.02 246.329 1592.02 289.491C1592.02 332.652 1558.03 365.425 1514.91 365.425C1472.68 365.425 1438.73 331.08 1438.73 289.799C1438.73 247.916 1472.36 213.556 1514.91 213.556ZM1513.98 348.965C1548.05 348.965 1574.51 323.261 1574.51 289.799C1574.51 255.703 1548.35 230.017 1513.98 230.017C1480.97 230.017 1456.24 257.732 1456.24 289.799C1456.24 321.231 1481.26 348.965 1513.98 348.965Z" fill="white"/>
<path fill-rule="evenodd" clip-rule="evenodd" d="M1817.17 289.491C1817.17 246.329 1783.17 213.556 1740.05 213.556C1697.51 213.556 1663.87 247.916 1663.87 289.799C1663.87 331.08 1697.83 365.425 1740.05 365.425C1783.17 365.425 1817.17 332.652 1817.17 289.491ZM1681.38 289.799C1681.38 257.732 1706.12 230.017 1739.12 230.017C1773.49 230.017 1799.66 255.703 1799.66 289.799C1799.66 323.261 1773.2 348.965 1739.12 348.965C1706.41 348.965 1681.38 321.231 1681.38 289.799Z" fill="white"/>
<path fill-rule="evenodd" clip-rule="evenodd" d="M2067 213.556C2110.12 213.556 2144.12 246.329 2144.12 289.491C2144.12 332.652 2110.12 365.425 2067 365.425C2024.78 365.425 1990.82 331.08 1990.82 289.799C1990.82 247.916 2024.46 213.556 2067 213.556ZM2066.07 230.017C2033.07 230.017 2008.33 257.732 2008.33 289.799C2008.33 321.231 2033.36 348.965 2066.07 348.965C2100.15 348.965 2126.61 323.261 2126.61 289.799C2126.61 255.703 2100.44 230.017 2066.07 230.017Z" fill="white"/>
<path d="M1964.94 256.322L1979.69 247.22C1975.35 240.008 1970.08 234.072 1963.88 229.41C1957.68 224.749 1950.1 220.968 1941.15 218.066C1932.29 215.163 1923.08 213.712 1913.51 213.712C1898.28 213.712 1884.5 217.054 1872.19 223.738C1859.87 230.422 1850.17 239.744 1843.08 251.705C1836.08 263.577 1832.59 276.462 1832.59 290.357C1832.59 311.024 1840.11 328.57 1855.18 342.993C1870.24 357.415 1889.19 364.627 1912.05 364.627C1926.93 364.627 1940.18 361.813 1951.79 356.184C1963.48 350.467 1972.78 342.464 1979.69 332.175L1964.94 322.545C1951.48 339.342 1934.11 347.742 1912.85 347.742C1901.24 347.742 1890.75 345.192 1881.36 340.09C1872.05 334.99 1864.7 327.821 1859.3 318.587C1853.98 309.354 1851.32 299.503 1851.32 289.038C1851.32 272.944 1857.12 259.268 1868.73 248.011C1880.42 236.754 1895.09 231.125 1912.72 231.125C1934.78 231.125 1952.18 239.524 1964.94 256.322Z" fill="white"/>
</svg>
