<svg width="2639" height="576" viewBox="0 0 2639 576" fill="none" xmlns="http://www.w3.org/2000/svg">
<g clip-path="url(#clip0_5_84)">
<path d="M438.6 419.585C472.277 381.046 491.246 329.646 487.538 274.554C480.108 164.354 384.754 81.0308 274.554 88.4615C219.461 92.1692 171.077 117.862 137.4 156.415L438.6 419.6V419.585Z" fill="#34C53A"/>
<path d="M167.508 182.677C167.508 182.677 167.492 182.692 167.477 182.708L137.385 156.415C103.723 194.954 84.7539 246.338 88.4616 301.446C95.8923 411.646 191.246 494.969 301.446 487.539C356.554 483.831 404.923 458.123 438.6 419.585L167.508 182.677Z" fill="#0D89EB"/>
<path d="M453 276.831C446.862 185.708 368 116.8 276.877 122.938C231.308 126.015 191.308 147.262 163.462 179.123C135.616 211 119.923 253.492 123 299.062C129.139 390.185 208 459.092 299.123 452.954C344.693 449.877 384.693 428.631 412.539 396.769C440.385 364.892 456.077 322.4 453 276.831Z" fill="black"/>
<path d="M205.785 216.308V222.292V234.246V240.231H220.739V234.246H355.262V240.231H370.215V234.246V216.308H205.785Z" fill="white"/>
<path d="M231.2 275.292V279.092V297.031V300.708H246.139V297.031H331.354V300.708H346.292V275.292H331.354V279.092H246.139V275.292H231.2Z" fill="white"/>
<path d="M370.215 335.892H355.262V341.877H220.739V335.892H205.785V341.877V353.831V359.815H370.215V341.877V335.892Z" fill="white"/>
</g>
<path d="M1323.12 161.271H1341.72V360.204H1323.12V161.271Z" fill="black"/>
<path d="M1279.52 163.381H1260.78V216.676H1235.4V232.507H1260.78V360.204H1279.52V232.507H1309.02V216.676H1279.52V163.381Z" fill="black"/>
<path fill-rule="evenodd" clip-rule="evenodd" d="M1048.14 360.204V216.676H1029.8V243.06C1022.54 233.034 1014.08 225.515 1004.42 220.502C994.852 215.489 984.132 212.983 972.261 212.983C951.707 212.983 934.123 220.326 919.505 235.013C904.888 249.7 897.579 267.377 897.579 288.044C897.579 309.151 904.798 327.092 919.239 341.867C933.768 356.554 951.264 363.898 971.73 363.898C983.246 363.898 993.833 361.523 1003.49 356.774C1013.23 352.025 1022.01 344.945 1029.8 335.534V360.204H1048.14ZM945.02 238.443C953.789 233.342 963.358 230.792 973.723 230.792C989.846 230.792 1003.4 236.376 1014.39 247.545C1025.46 258.714 1031 272.61 1031 289.232C1031 300.136 1028.52 309.943 1023.56 318.649C1018.68 327.356 1011.68 334.26 1002.56 339.36C993.434 344.462 983.777 347.012 973.59 347.012C963.49 347.012 954.011 344.462 945.153 339.36C936.382 334.172 929.383 326.961 924.156 317.726C918.929 308.492 916.315 298.818 916.315 288.704C916.315 278.502 918.884 268.828 924.023 259.682C929.25 250.536 936.249 243.456 945.02 238.443Z" fill="black"/>
<path d="M790.062 216.676H767.736L817.304 284.878L762.555 360.204H784.746L828.334 299.917L872.585 360.204H895.176L839.495 284.878L888.93 216.676H866.605L828.334 269.84L790.062 216.676Z" fill="black"/>
<path d="M1219.57 246.49L1204.82 255.592C1192.07 238.795 1174.66 230.396 1152.6 230.396C1134.97 230.396 1120.31 236.024 1108.61 247.281C1097.01 258.539 1091.2 272.214 1091.2 288.308C1091.2 298.773 1093.86 308.624 1099.18 317.858C1104.58 327.092 1111.94 334.26 1121.24 339.36C1130.63 344.462 1141.13 347.012 1152.73 347.012C1173.99 347.012 1191.36 338.613 1204.82 321.816L1219.57 331.446C1212.66 341.735 1203.36 349.738 1191.67 355.455C1180.06 361.083 1166.82 363.898 1151.93 363.898C1129.08 363.898 1110.12 356.686 1095.06 342.263C1080 327.841 1072.47 310.295 1072.47 289.627C1072.47 275.732 1075.97 262.848 1082.97 250.975C1090.05 239.015 1099.76 229.692 1112.07 223.009C1124.38 216.325 1138.16 212.983 1153.4 212.983C1162.96 212.983 1172.18 214.434 1181.04 217.336C1189.98 220.238 1197.56 224.02 1203.76 228.681C1209.96 233.342 1215.23 239.278 1219.57 246.49Z" fill="black"/>
<path d="M1373.62 216.676H1353.95L1413.36 349.387L1385.45 412.707H1405.12L1491.36 216.676H1471.56L1423.32 327.224L1373.62 216.676Z" fill="black"/>
<path d="M742.316 216.114H576V234.125H576.002L576.002 240.129H591.121V234.125H727.198V240.129H742.317V222.117H742.316V216.114Z" fill="black"/>
<path d="M616.825 279.153V275.342L601.705 275.342L601.705 300.858H616.825V297.165H703.007V300.858H718.126L718.126 275.342L703.007 275.342V279.153H616.825Z" fill="black"/>
<path d="M591.121 342.193V336.189H576.002L576.002 360.204H742.317L742.317 336.189H727.198V342.193H591.121Z" fill="black"/>
<path d="M2551 161.271H2532.4V360.204H2551V161.271Z" fill="black"/>
<path d="M1988.04 163.381H2006.77V216.676H2036.27V232.507H2006.77V360.204H1988.04V232.507H1962.65V216.676H1988.04V163.381Z" fill="black"/>
<path fill-rule="evenodd" clip-rule="evenodd" d="M1601.04 215.904V238.185C1612.84 221.946 1634.51 212.827 1654.44 212.827C1676.79 212.827 1694.95 221.497 1707.5 235.54C1720.03 249.562 1726.9 268.847 1726.9 289.992C1726.9 311.143 1720.03 329.826 1707.55 343.239C1695.06 356.668 1677.06 364.696 1655.06 364.696C1634.12 364.696 1613.59 356.245 1601.04 339.943V412.729H1583.52V215.904H1601.04ZM1614.21 247.974C1604.97 259.412 1600.11 275.079 1600.11 291.839C1600.11 308.056 1605.62 322.145 1615.23 332.166C1624.83 342.178 1638.61 348.236 1655.37 348.236C1687.66 348.236 1709.39 321.233 1709.39 290.3C1709.39 258.335 1688.5 229.287 1654.75 229.287C1637 229.287 1623.41 236.578 1614.21 247.974Z" fill="black"/>
<path fill-rule="evenodd" clip-rule="evenodd" d="M1765.21 229.949C1771.4 219.567 1781.3 212.827 1795.05 212.827C1800.93 212.827 1805.82 214.133 1810.95 216.36L1812.8 217.166L1803.44 232.653L1801.94 231.841C1798.71 230.092 1796.22 229.287 1792.88 229.287C1785.46 229.287 1780.15 231.569 1776.29 235.191C1772.38 238.852 1769.8 244.017 1768.12 249.997C1765.1 260.791 1765.15 273.688 1765.2 283.868V283.874L1765.2 284.061C1765.2 284.647 1765.2 285.223 1765.2 285.79L1765.21 286.489C1765.21 286.735 1765.21 286.98 1765.21 287.223V361.618H1747.69V215.904H1765.21V229.949ZM1763.42 283.969C1763.42 285.093 1763.43 286.18 1763.43 287.223C1763.43 286.171 1763.42 285.075 1763.42 283.941V283.969Z" fill="black"/>
<path fill-rule="evenodd" clip-rule="evenodd" d="M1886.91 212.827C1930.03 212.827 1964.02 245.6 1964.02 288.761C1964.02 331.923 1930.03 364.696 1886.91 364.696C1844.68 364.696 1810.73 330.351 1810.73 289.069C1810.73 247.186 1844.36 212.827 1886.91 212.827ZM1885.98 348.236C1920.05 348.236 1946.51 322.532 1946.51 289.069C1946.51 254.974 1920.35 229.287 1885.98 229.287C1852.97 229.287 1828.24 257.003 1828.24 289.069C1828.24 320.502 1853.26 348.236 1885.98 348.236Z" fill="black"/>
<path fill-rule="evenodd" clip-rule="evenodd" d="M2189.17 288.761C2189.17 245.6 2155.17 212.827 2112.05 212.827C2069.51 212.827 2035.87 247.186 2035.87 289.069C2035.87 330.351 2069.83 364.696 2112.05 364.696C2155.17 364.696 2189.17 331.923 2189.17 288.761ZM2053.38 289.069C2053.38 257.003 2078.12 229.287 2111.12 229.287C2145.49 229.287 2171.66 254.974 2171.66 289.069C2171.66 322.532 2145.2 348.236 2111.12 348.236C2078.41 348.236 2053.38 320.502 2053.38 289.069Z" fill="black"/>
<path fill-rule="evenodd" clip-rule="evenodd" d="M2439 212.827C2482.12 212.827 2516.12 245.6 2516.12 288.761C2516.12 331.923 2482.12 364.696 2439 364.696C2396.78 364.696 2362.82 330.351 2362.82 289.069C2362.82 247.186 2396.46 212.827 2439 212.827ZM2438.07 229.287C2405.07 229.287 2380.33 257.003 2380.33 289.069C2380.33 320.502 2405.36 348.236 2438.07 348.236C2472.15 348.236 2498.61 322.532 2498.61 289.069C2498.61 254.974 2472.44 229.287 2438.07 229.287Z" fill="black"/>
<path d="M2336.94 255.592L2351.69 246.49C2347.35 239.279 2342.08 233.342 2335.88 228.681C2329.68 224.02 2322.1 220.238 2313.15 217.336C2304.29 214.434 2295.08 212.983 2285.51 212.983C2270.28 212.983 2256.5 216.325 2244.19 223.009C2231.87 229.692 2222.17 239.015 2215.08 250.975C2208.08 262.848 2204.59 275.732 2204.59 289.627C2204.59 310.295 2212.11 327.841 2227.18 342.263C2242.24 356.686 2261.19 363.898 2284.05 363.898C2298.93 363.898 2312.18 361.083 2323.79 355.455C2335.48 349.738 2344.78 341.735 2351.69 331.446L2336.94 321.816C2323.48 338.613 2306.11 347.012 2284.85 347.012C2273.24 347.012 2262.75 344.462 2253.36 339.36C2244.05 334.26 2236.7 327.092 2231.3 317.858C2225.98 308.624 2223.32 298.773 2223.32 288.308C2223.32 272.214 2229.12 258.539 2240.73 247.282C2252.42 236.024 2267.09 230.396 2284.72 230.396C2306.78 230.396 2324.18 238.795 2336.94 255.592Z" fill="black"/>
<defs>
<clipPath id="clip0_5_84">
<rect width="400" height="400" fill="white" transform="translate(88 88)"/>
</clipPath>
</defs>
</svg>
