<svg width="1024" height="1024" viewBox="0 0 1024 1024" fill="none" xmlns="http://www.w3.org/2000/svg">
<path d="M955.765 0H68.2346C30.5497 0 0 30.5497 0 68.2346V955.765C0 993.45 30.5497 1024 68.2346 1024H955.765C993.45 1024 1024 993.45 1024 955.765V68.2346C1024 30.5497 993.45 0 955.765 0Z" fill="#19181A"/>
<path d="M307.213 455.084H716.781C729.304 455.084 739.499 465.28 739.499 477.803V546.037C739.499 558.56 729.304 568.755 716.781 568.755H307.213C294.69 568.755 284.495 558.56 284.495 546.037V477.803C284.495 465.28 294.69 455.084 307.213 455.084Z" fill="#FBFDFC"/>
<path d="M830.532 170.667H193.382C180.779 170.667 170.664 180.862 170.664 193.385V318.535C170.664 331.139 180.859 341.253 193.382 341.253H261.617C274.22 341.253 284.335 331.058 284.335 318.535V284.418H739.419V318.535C739.419 331.139 749.614 341.253 762.137 341.253H830.372C842.975 341.253 853.09 331.058 853.09 318.535V193.385C853.09 180.782 842.895 170.667 830.372 170.667H830.532Z" fill="#FBFDFC"/>
<path d="M830.532 682.667H762.297C749.694 682.667 739.579 692.862 739.579 705.385V739.502H284.495V705.385C284.495 692.782 274.3 682.667 261.777 682.667H193.542C180.939 682.667 170.824 692.862 170.824 705.385V830.535C170.824 843.139 181.019 853.253 193.542 853.253H830.693C843.296 853.253 853.411 843.058 853.411 830.535V705.385C853.411 692.782 843.216 682.667 830.693 682.667H830.532Z" fill="#FBFDFC"/>
</svg>
