<svg width="3979" height="1104" viewBox="0 0 3979 1104" fill="none" xmlns="http://www.w3.org/2000/svg">
<g clip-path="url(#clip0_56_87)">
<path d="M39.396 280.223H682.865" stroke="#0E0E0E" stroke-width="78.7921" stroke-linecap="square"/>
<path d="M151.018 555.995H574.526" stroke="#0E0E0E" stroke-width="78.7921" stroke-linecap="square"/>
<path d="M39.396 831.767H682.865" stroke="#0E0E0E" stroke-width="78.7921" stroke-linecap="square"/>
<path d="M832.648 243.289H929.602L1095.81 475.856L1262.01 243.289H1358.96L1144.28 541.645L1386.08 871.163H1287.97L1095.81 607.433L906.516 871.163H810.147L1047.91 541.645L832.648 243.289ZM2050.36 243.289V871.163H1970.72V763.244C1936.87 804.413 1898.78 835.385 1856.46 856.16C1814.52 876.934 1768.55 887.322 1718.53 887.322C1629.66 887.322 1553.67 855.194 1490.58 790.946C1427.87 726.31 1396.52 647.827 1396.52 555.495C1396.52 465.084 1428.26 387.754 1491.74 323.505C1555.22 259.255 1631.58 227.131 1720.84 227.131C1772.39 227.131 1818.95 238.095 1860.5 260.025C1902.43 281.954 1939.17 314.848 1970.72 358.707V243.289H2050.36ZM1727.19 305.038C1682.18 305.038 1640.62 316.195 1602.54 338.509C1564.45 360.439 1534.06 391.409 1511.36 431.42C1489.04 471.432 1477.88 513.752 1477.88 558.381C1477.88 602.627 1489.24 644.945 1511.93 685.338C1534.63 725.739 1565.03 757.282 1603.12 779.981C1641.59 802.299 1682.75 813.454 1726.61 813.454C1770.85 813.454 1812.79 802.299 1852.41 779.981C1892.04 757.669 1922.43 727.466 1943.6 689.376C1965.14 651.294 1975.91 608.392 1975.91 560.689C1975.91 487.975 1951.87 427.189 1903.78 378.328C1856.07 329.468 1797.21 305.038 1727.19 305.038ZM2794.85 373.712L2730.8 413.531C2675.39 340.048 2599.8 303.306 2504 303.306C2427.44 303.306 2363.76 327.929 2312.98 377.174C2262.58 426.419 2237.38 486.245 2237.38 556.649C2237.38 602.43 2248.92 645.523 2272.01 685.916C2295.48 726.31 2327.41 757.669 2367.81 779.981C2408.59 802.299 2454.18 813.454 2504.58 813.454C2596.91 813.454 2672.32 776.711 2730.8 703.231L2794.85 745.358C2764.84 790.368 2724.45 825.378 2673.66 850.388C2623.26 875.011 2565.75 887.322 2501.11 887.322C2401.85 887.322 2319.52 855.772 2254.12 792.679C2188.71 729.587 2156.01 652.831 2156.01 562.42C2156.01 501.633 2171.21 445.271 2201.6 393.333C2232.38 341.01 2274.51 300.229 2327.98 270.99C2381.46 241.75 2441.29 227.131 2507.46 227.131C2549.01 227.131 2589.02 233.479 2627.49 246.175C2666.35 258.87 2699.25 275.414 2726.18 295.804C2753.11 316.195 2776 342.164 2794.85 373.712ZM2973.8 10.1447H3055.16V243.289H3183.28V312.54H3055.16V871.163H2973.8V312.54H2863.57V243.289H2973.8V10.1447ZM3244.5 0.910889H3325.29V871.163H3244.5V0.910889ZM3378.43 243.289H3463.84L3679.67 726.888L3889.15 243.289H3975.14L3600.61 1100.84H3515.2L3636.39 823.842L3378.43 243.289Z" fill="#0E0E0E"/>
<path d="M32.83 267.091V345.883" stroke="#0E0E0E" stroke-width="65.6601"/>
<path d="M144.452 499.927V611.549" stroke="#0E0E0E" stroke-width="65.6601"/>
<path d="M584.375 499.927V611.549" stroke="#0E0E0E" stroke-width="65.6601"/>
<path d="M32.83 766.107V844.899" stroke="#0E0E0E" stroke-width="65.6601"/>
<path d="M689.431 766.107V844.899" stroke="#0E0E0E" stroke-width="65.6601"/>
<path d="M689.431 267.091V345.883" stroke="#0E0E0E" stroke-width="65.6601"/>
</g>
<defs>
<clipPath id="clip0_56_87">
<rect width="3979" height="1103.09" fill="white" transform="translate(0 0.910889)"/>
</clipPath>
</defs>
</svg>
